<svg width="63" height="67" viewBox="0 0 63 67" fill="none" xmlns="http://www.w3.org/2000/svg">
<path d="M14.1957 46.9163L1.17773 27.2258V19.4935L14.1957 36.9729L31.5966 8.12402L48.4087 36.9729L61.165 19.4935L61.95 27.2258L48.4087 48.6695L31.5966 18.5777L14.1957 46.9163Z" fill="#8035BB"/>
<path d="M58.5215 50.5411L51.5612 46.3675C50.5407 45.7526 49.2323 46.1058 48.6567 47.1394L38.517 65.4169C38.1245 66.1234 38.6348 67 39.446 67C39.6553 67 39.8646 66.9346 40.0478 66.8168L58.6262 54.0736C59.8822 53.2101 59.8299 51.3392 58.5215 50.5542V50.5411ZM62.7998 44.5358V28.3648C62.7998 27.3181 61.4391 26.9256 60.8765 27.7891L53.0265 39.8258C52.3723 40.8202 52.6863 42.1547 53.7069 42.7696L59.6336 46.3283C61.0205 47.1656 62.7998 46.1582 62.7998 44.5358ZM24.2823 65.4169L14.1296 47.1525C13.5539 46.1189 12.2325 45.7657 11.2251 46.3806L4.26475 50.5542C2.95641 51.3392 2.90407 53.2101 4.16008 54.0736L22.7516 66.8168C22.9347 66.9346 23.1441 67 23.3534 67C24.1646 67 24.6748 66.1234 24.2823 65.4169ZM-0.000434732 44.5358C-0.000434732 46.1582 1.77891 47.1656 3.16575 46.3283L9.09252 42.7696C10.113 42.1547 10.4139 40.8202 9.77285 39.8258L1.92282 27.7891C1.36024 26.9125 -0.000434732 27.3181 -0.000434732 28.3648V44.5358ZM6.44967 12.3507L27.4616 9.87795C28.5213 9.7602 29.3063 8.85745 29.3063 7.79769V0.889664C29.3063 0.405578 28.9138 0 28.4167 0C28.312 0 28.2073 0.0130722 28.1027 0.0523224L5.50767 8.42569C4.70958 8.71352 4.18625 9.47236 4.18625 10.3228C4.18625 11.5395 5.246 12.4815 6.44967 12.3376V12.3507ZM34.3827 0.0130768C33.8986 0.0130768 33.493 0.40558 33.493 0.902748V7.78461C33.493 8.84436 34.2911 9.73403 35.3378 9.86486L56.3497 12.3507C57.5534 12.4946 58.6131 11.5526 58.6131 10.3359C58.6131 9.48545 58.0898 8.72661 57.2917 8.43877L34.6967 0.0654068C34.592 0.0261566 34.4874 0.0130768 34.3827 0.0130768ZM59.4374 16.9037L37.0779 14.2609C36.0574 14.1431 35.3247 15.2421 35.835 16.1318L47.0474 35.7569C47.8193 37.1176 49.7557 37.1699 50.6192 35.8615L60.942 20.1353C61.7924 18.8401 60.9812 17.0869 59.4374 16.9037ZM1.92282 20.1484L12.1802 35.8485C13.0306 37.1568 14.98 37.1045 15.752 35.7438L26.9252 16.1711C27.4354 15.2814 26.7158 14.1824 25.6822 14.3001L3.42741 16.9168C1.88357 17.1 1.0724 18.8401 1.92282 20.1353V20.1484ZM30.3007 18.7092L20.0433 36.6596C19.2452 38.0596 20.2526 39.7866 21.8619 39.7866H40.9375C42.5467 39.7866 43.5541 38.0465 42.7561 36.6596L32.4987 18.7092C32.0146 17.8719 30.7979 17.8719 30.3138 18.7092H30.3007ZM42.0757 43.9732H20.7236C19.1275 43.9732 18.1201 45.6872 18.892 47.0871L29.3587 65.9272C29.725 66.5944 30.4315 67 31.1903 67H31.609C32.3679 67 33.0744 66.5813 33.4407 65.9272L43.9074 47.0871C44.6793 45.6872 43.6719 43.9732 42.0757 43.9732Z" fill="white"/>
</svg>
