<svg width="306" height="67" viewBox="0 0 306 67" fill="none" xmlns="http://www.w3.org/2000/svg">
<path d="M14.1957 46.9163L1.17773 27.2258V19.4935L14.1957 36.9729L31.5966 8.12402L48.4087 36.9729L61.165 19.4935L61.95 27.2258L48.4087 48.6695L31.5966 18.5777L14.1957 46.9163Z" fill="#8035BB"/>
<path d="M58.5215 50.5411L51.5612 46.3675C50.5407 45.7526 49.2323 46.1058 48.6567 47.1394L38.517 65.4169C38.1245 66.1234 38.6348 67 39.446 67C39.6553 67 39.8646 66.9346 40.0478 66.8168L58.6262 54.0736C59.8822 53.2101 59.8299 51.3392 58.5215 50.5542V50.5411ZM62.7998 44.5358V28.3648C62.7998 27.3181 61.4391 26.9256 60.8765 27.7891L53.0265 39.8258C52.3723 40.8202 52.6863 42.1547 53.7069 42.7696L59.6336 46.3283C61.0205 47.1656 62.7998 46.1582 62.7998 44.5358ZM24.2823 65.4169L14.1296 47.1525C13.5539 46.1189 12.2325 45.7657 11.2251 46.3806L4.26475 50.5542C2.95641 51.3392 2.90407 53.2101 4.16008 54.0736L22.7516 66.8168C22.9347 66.9346 23.1441 67 23.3534 67C24.1646 67 24.6748 66.1234 24.2823 65.4169ZM-0.000434732 44.5358C-0.000434732 46.1582 1.77891 47.1656 3.16575 46.3283L9.09252 42.7696C10.113 42.1547 10.4139 40.8202 9.77285 39.8258L1.92282 27.7891C1.36024 26.9125 -0.000434732 27.3181 -0.000434732 28.3648V44.5358ZM6.44967 12.3507L27.4616 9.87795C28.5213 9.7602 29.3063 8.85745 29.3063 7.79769V0.889664C29.3063 0.405578 28.9138 0 28.4167 0C28.312 0 28.2073 0.0130722 28.1027 0.0523224L5.50767 8.42569C4.70958 8.71352 4.18625 9.47236 4.18625 10.3228C4.18625 11.5395 5.246 12.4815 6.44967 12.3376V12.3507ZM34.3827 0.0130768C33.8986 0.0130768 33.493 0.40558 33.493 0.902748V7.78461C33.493 8.84436 34.2911 9.73403 35.3378 9.86486L56.3497 12.3507C57.5534 12.4946 58.6131 11.5526 58.6131 10.3359C58.6131 9.48545 58.0898 8.72661 57.2917 8.43877L34.6967 0.0654068C34.592 0.0261566 34.4874 0.0130768 34.3827 0.0130768ZM59.4374 16.9037L37.0779 14.2609C36.0574 14.1431 35.3247 15.2421 35.835 16.1318L47.0474 35.7569C47.8193 37.1176 49.7557 37.1699 50.6192 35.8615L60.942 20.1353C61.7924 18.8401 60.9812 17.0869 59.4374 16.9037ZM1.92282 20.1484L12.1802 35.8485C13.0306 37.1568 14.98 37.1045 15.752 35.7438L26.9252 16.1711C27.4354 15.2814 26.7158 14.1824 25.6822 14.3001L3.42741 16.9168C1.88357 17.1 1.0724 18.8401 1.92282 20.1353V20.1484ZM30.3007 18.7092L20.0433 36.6596C19.2452 38.0596 20.2526 39.7866 21.8619 39.7866H40.9375C42.5467 39.7866 43.5541 38.0465 42.7561 36.6596L32.4987 18.7092C32.0146 17.8719 30.7979 17.8719 30.3138 18.7092H30.3007ZM42.0757 43.9732H20.7236C19.1275 43.9732 18.1201 45.6872 18.892 47.0871L29.3587 65.9272C29.725 66.5944 30.4315 67 31.1903 67H31.609C32.3679 67 33.0744 66.5813 33.4407 65.9272L43.9074 47.0871C44.6793 45.6872 43.6719 43.9732 42.0757 43.9732Z" fill="white"/>
<path d="M104.324 19.16L99.904 20.304L107.444 48.124L116.076 20.148H117.896V23.632L125.54 48.124L133.288 20.304L128.868 19.16C128.868 18.12 129.128 17.6 129.648 17.6L135.004 17.808L139.06 17.6C139.58 17.6693 139.84 18.1893 139.84 19.16L136.46 20.304L127.1 54H123.148L115.92 30.756L108.796 54H104.844L95.38 20.304L92 19.16C92 18.12 92.2427 17.6 92.728 17.6C93.2133 17.6 94.964 17.6693 97.98 17.808L103.544 17.6C104.064 17.6 104.324 18.12 104.324 19.16ZM146.024 30.912L142.696 30.184C142.696 29.1093 143.008 28.572 143.632 28.572C144.152 28.572 145.591 28.624 147.948 28.728L152.16 28.572C152.749 28.572 153.044 29.092 153.044 30.132L149.716 30.912V51.66L153.044 52.388C153.044 53.4627 152.749 54 152.16 54L147.948 53.688L143.632 54C143.008 54 142.696 53.4627 142.696 52.388L146.024 51.66V30.912ZM161.707 30.912L158.379 30.184C158.379 29.1093 158.691 28.572 159.315 28.572C159.835 28.572 161.273 28.624 163.631 28.728L167.323 28.572C167.912 28.572 168.207 29.092 168.207 30.132L165.243 30.912L165.659 40.22H169.351L174.499 30.86L172.315 30.184C172.315 29.1093 172.609 28.572 173.199 28.572L175.799 28.728L179.387 28.572C179.976 28.572 180.271 29.092 180.271 30.132L177.619 30.964L171.795 40.844L180.375 54.312L177.775 55.092L168.623 42.144L165.607 42.508L165.243 51.66L169.195 52.388C169.195 53.4627 168.9 54 168.311 54L163.631 53.688L159.315 54C158.691 54 158.379 53.4627 158.379 52.388L161.707 51.66V30.912ZM188.528 30.912L185.2 30.184C185.2 29.1093 185.512 28.572 186.136 28.572C186.656 28.572 188.095 28.624 190.452 28.728L194.664 28.572C195.253 28.572 195.548 29.092 195.548 30.132L192.22 30.912V51.66L195.548 52.388C195.548 53.4627 195.253 54 194.664 54L190.452 53.688L186.136 54C185.512 54 185.2 53.4627 185.2 52.388L188.528 51.66V30.912ZM217.593 20.304L213.225 19.16C213.225 18.12 213.485 17.6 214.005 17.6C214.317 17.6 216.102 17.6693 219.361 17.808C224.596 17.6693 227.3 17.6 227.473 17.6C230.628 17.6 233.141 18.5707 235.013 20.512C236.885 22.4533 237.821 24.8107 237.821 27.584C237.821 29.456 237.162 31.276 235.845 33.044C234.528 34.7773 232.69 36.0427 230.333 36.84C231.2 37.36 232.032 38.296 232.829 39.648L239.485 51.296L243.645 52.44C243.645 53.48 243.385 54 242.865 54H236.053L228.565 39.856C227.941 38.7467 227.334 37.984 226.745 37.568L221.857 38.348L221.441 51.296L226.693 52.44C226.693 53.48 226.433 54 225.913 54C224.769 54 222.585 53.9307 219.361 53.792L214.005 54C213.485 54 213.225 53.48 213.225 52.44L217.593 51.296V20.304ZM226.121 19.784L221.441 20.304L221.909 35.384L225.185 35.592C228.132 35.592 230.35 34.7947 231.841 33.2C233.332 31.6053 234.077 29.7333 234.077 27.584C234.077 25.4347 233.384 23.5973 231.997 22.072C230.645 20.5467 228.686 19.784 226.121 19.784ZM248.57 20.304L244.202 19.16C244.202 18.12 244.462 17.6 244.982 17.6C245.294 17.6 247.079 17.6693 250.338 17.808L258.554 17.6C261.847 17.6 264.464 18.6053 266.406 20.616C268.347 22.6267 269.318 25.1053 269.318 28.052C269.318 30.964 268.191 33.4773 265.938 35.592C263.684 37.7067 260.46 38.9547 256.266 39.336L252.782 39.648L252.418 51.296L258.19 52.44C258.19 53.48 257.93 54 257.41 54C255.919 54 253.562 53.9307 250.338 53.792L244.982 54C244.462 54 244.202 53.48 244.202 52.44L248.57 51.296V20.304ZM257.618 19.784L252.418 20.304L252.938 35.8L252.886 36.788L256.682 36.996C259.594 36.996 261.795 36.112 263.286 34.344C264.811 32.576 265.574 30.5307 265.574 28.208C265.574 25.8507 264.898 23.8573 263.546 22.228C262.194 20.5987 260.218 19.784 257.618 19.784ZM301.894 48.228L302.362 50.256C298.306 53.168 293.886 54.624 289.102 54.624C284.353 54.624 280.47 52.9947 277.454 49.736C274.473 46.4773 272.982 41.8493 272.982 35.852C272.982 29.82 274.646 25.1747 277.974 21.916C281.302 18.6227 285.514 16.976 290.61 16.976C294.978 16.976 298.809 18.016 302.102 20.096L300.75 27.844C299.19 27.844 298.41 27.6013 298.41 27.116V21.344C295.949 20.4773 293.349 20.044 290.61 20.044C287.906 20.044 285.306 20.46 282.81 21.292C281.181 22.5053 279.898 24.3947 278.962 26.96C278.026 29.5253 277.558 32.4373 277.558 35.696C277.558 40.9307 278.685 44.9347 280.938 47.708C283.226 50.4813 286.173 51.868 289.778 51.868C291.338 51.868 292.933 51.608 294.562 51.088C296.226 50.5333 297.63 49.8227 298.774 48.956L297.89 38.088L288.27 37.516V35.28H301.894V48.228Z" fill="white"/>
</svg>
