<svg width="864" height="183" viewBox="0 0 864 183" fill="none" xmlns="http://www.w3.org/2000/svg">
<g filter="url(#filter0_d_403_1618)">
<path d="M87.7078 0H211L127.803 175H0L87.7078 0Z" fill="#8035BB"/>
<path d="M248.708 0H372L288.803 175H161L248.708 0Z" fill="#8035BB"/>
<path d="M409.708 0H533L449.803 175H322L409.708 0Z" fill="#D9D9D9"/>
<path d="M570.708 0H694L610.803 175H483L570.708 0Z" fill="#D9D9D9"/>
<path d="M731.708 0H855L771.803 175H644L731.708 0Z" fill="#D9D9D9"/>
<path d="M87.7078 0H211L127.803 175H0L87.7078 0Z" fill="#8035BB"/>
<path d="M248.708 0H372L288.803 175H161L248.708 0Z" fill="#8035BB"/>
<path d="M409.708 0H533L449.803 175H322L409.708 0Z" fill="#D9D9D9"/>
<path d="M570.708 0H694L610.803 175H483L570.708 0Z" fill="#D9D9D9"/>
<path d="M731.708 0H855L771.803 175H644L731.708 0Z" fill="#D9D9D9"/>
</g>
<defs>
<filter id="filter0_d_403_1618" x="0" y="0" width="864" height="183" filterUnits="userSpaceOnUse" color-interpolation-filters="sRGB">
<feFlood flood-opacity="0" result="BackgroundImageFix"/>
<feColorMatrix in="SourceAlpha" type="matrix" values="0 0 0 0 0 0 0 0 0 0 0 0 0 0 0 0 0 0 127 0" result="hardAlpha"/>
<feOffset dx="5" dy="4"/>
<feGaussianBlur stdDeviation="2"/>
<feComposite in2="hardAlpha" operator="out"/>
<feColorMatrix type="matrix" values="0 0 0 0 0 0 0 0 0 0 0 0 0 0 0 0 0 0 0.25 0"/>
<feBlend mode="normal" in2="BackgroundImageFix" result="effect1_dropShadow_403_1618"/>
<feBlend mode="normal" in="SourceGraphic" in2="effect1_dropShadow_403_1618" result="shape"/>
</filter>
</defs>
</svg>
